<svg xmlns="http://www.w3.org/2000/svg" viewBox="0 0 1299 1291">
    <defs>
        <style>.cls-1{fill:#4d4d4d;}.cls-2,.cls-6{fill:#fff;}.cls-3,.cls-4,.cls-5{fill:none;stroke:#fff;stroke-miterlimit:10;}.cls-3{stroke-width:5px;}.cls-4,.cls-5{stroke-width:3px;}.cls-5{stroke-dasharray:11.6 11.6;}.cls-6,.cls-8{font-size:18px;font-family:MyriadPro-Bold, Myriad Pro;font-weight:700;}.cls-7{letter-spacing:-0.01em;}.cls-9{letter-spacing:0em;}.cls-10{letter-spacing:-0.01em;}.cls-11{letter-spacing:-0.02em;}</style>
    </defs>
    <title>Asset 1</title>
    <g id="Layer_2" data-name="Layer 2">
        <g id="Layer_1-2" data-name="Layer 1">
            <rect class="cls-1" y="578" width="646" height="155" />
            <path class="cls-2" d="M645.5,826C546,826,465,745,465,645.5S546,465,645.5,465,826,546,826,645.5,745,826,645.5,826Z" />
            <path class="cls-1" d="M645.5,540a105.5,105.5,0,1,1-74.6,30.9A105.5,105.5,0,0,1,645.5,540m0-150C504.39,390,390,504.39,390,645.5S504.39,901,645.5,901,901,786.61,901,645.5,786.61,390,645.5,390Z" />
            <path class="cls-2" d="M646,420c124.42.18,225.13,101.19,225,225.61s-101.19,225.13-225.61,225S420.21,769.37,420.39,645A225.28,225.28,0,0,1,646,420m0-5c-127.58,0-231,103.42-231,231S518.42,877,646,877,877,773.58,877,646,773.58,415,646,415Z" />
            <path class="cls-3" d="M302,578Z" />
            <rect class="cls-2" x="314.5" y="589.5" width="79" height="20" />
            <rect class="cls-2" x="314" y="618" width="79" height="20" />
            <rect class="cls-2" x="314" y="645" width="79" height="20" />
            <rect class="cls-2" x="314" y="673" width="79" height="20" />
            <rect class="cls-2" x="314" y="701" width="79" height="20" />
            <rect class="cls-1" x="653" y="567" width="646" height="155" />
            <rect class="cls-1" x="582" y="645" width="155" height="646" />
            <rect class="cls-1" x="582" width="155" height="646" />
            <line class="cls-4" x1="302" y1="578" x2="302" y2="733" />
            <line class="cls-4" x1="302" y1="654.5" x2="296" y2="654.5" />
            <line class="cls-5" x1="284.4" y1="654.5" x2="11.8" y2="654.5" />
            <line class="cls-4" x1="6" y1="654.5" y2="654.5" />
            <text class="cls-6" transform="translate(7.12 598.53)">
                <tspan class="cls-7">A</tspan>
                <tspan x="11.7" y="0">rm 1</tspan>
            </text>
            <text class="cls-8" transform="translate(9.12 751.57)">
                <tspan class="cls-9">S</tspan>
                <tspan x="9.65" y="0">l</tspan>
                <tspan class="cls-10" x="14.6" y="0">a</tspan>
                <tspan class="cls-11" x="23.89" y="0">v</tspan>
                <tspan x="33.16" y="0">e 1</tspan>
            </text>
        </g>
    </g>
</svg>